<svg width="20" height="18" viewBox="0 0 20 18" fill="none" xmlns="http://www.w3.org/2000/svg">
<path fill-rule="evenodd" clip-rule="evenodd" d="M2.25 5C2.25 2.23857 4.48858 0 7.25 0H15C17.7614 0 20 2.23858 20 5V13C20 15.7614 17.7614 18 15 18H1C0.632506 18 0.29462 17.7984 0.120042 17.475C-0.0545365 17.1517 -0.0376755 16.7586 0.163953 16.4513L1.75815 14.0221C2.07904 13.5331 2.25 12.961 2.25 12.3761V5ZM7.25 2C5.59315 2 4.25 3.34314 4.25 5V12.3761C4.25 13.3509 3.96506 14.3044 3.43024 15.1194L2.85236 16H15C16.6569 16 18 14.6569 18 13V5C18 3.34315 16.6569 2 15 2H7.25ZM8.52513 6.52513C8.91565 6.1346 9.54882 6.1346 9.93934 6.52513L11 7.58579L12.0607 6.52513C12.4512 6.1346 13.0844 6.1346 13.4749 6.52513C13.8654 6.91565 13.8654 7.54882 13.4749 7.93934L12.4142 9L13.4749 10.0607C13.8654 10.4512 13.8654 11.0843 13.4749 11.4749C13.0844 11.8654 12.4512 11.8654 12.0607 11.4749L11 10.4142L9.93934 11.4749C9.54882 11.8654 8.91565 11.8654 8.52513 11.4749C8.1346 11.0843 8.1346 10.4512 8.52513 10.0607L9.58579 9L8.52513 7.93934C8.1346 7.54882 8.1346 6.91565 8.52513 6.52513Z" fill="white"/>
</svg>
